<svg xmlns="http://www.w3.org/2000/svg" width="32.414" height="32.414" viewBox="0 0 32.414 32.414">
  <g id="service-icon2" transform="translate(1 1)">
    <line id="Line_146" data-name="Line 146" x2="11.069" y2="11.069" transform="translate(18.931 18.931)" fill="none" stroke="#136ad5" stroke-linecap="round" stroke-linejoin="round" stroke-width="2"/>
    <path id="Path_3756" data-name="Path 3756" d="M-439.83,69.274l9.284-8.917,3.263,3.259,11.094-11.082" transform="translate(442.291 -51.231)" fill="none" stroke="#ff8a2e" stroke-linecap="round" stroke-linejoin="round" stroke-width="2"/>
    <path id="Path_3757" data-name="Path 3757" d="M-416.215,58.4V52.535h-5.867" transform="translate(442.317 -51.231)" fill="none" stroke="#ff8a2e" stroke-linecap="round" stroke-linejoin="round" stroke-width="2"/>
    <path id="Path_3758" data-name="Path 3758" d="M-420.2,61.009a11.236,11.236,0,0,1,.076,1.3,11.083,11.083,0,0,1-11.082,11.082,11.083,11.083,0,0,1-11.083-11.082,11.083,11.083,0,0,1,11.083-11.082,11.084,11.084,0,0,1,10,6.3" transform="translate(442.291 -51.231)" fill="none" stroke="#136ad5" stroke-linecap="round" stroke-linejoin="round" stroke-width="2"/>
  </g>
</svg>
