<svg xmlns="http://www.w3.org/2000/svg" width="705.173" height="179.896" viewBox="0 0 705.173 179.896">
  <g id="question-img" transform="translate(742.391 -141.15)">
    <path id="Path_5305" data-name="Path 5305" d="M-51.019,373.831H-686c2.772-11.322,10.489-25.642,34.072-32.378,23.163-6.616,48.4-2.136,70.467-.72,94.6,6.073,125.383-46.251,247.8-55.043,19.655-1.412,102.716-7.377,147.13,13.671,22.873,10.84,25.287,24.007,61.95,33.457,23.189,5.978,38.684,4.953,54.206,12.592C-53.656,353.64-50.722,365.124-51.019,373.831Z" transform="translate(13.782 -52.784)" fill="#e2e8ef"/>
    <circle id="Ellipse_87" data-name="Ellipse 87" cx="5.656" cy="5.656" r="5.656" transform="translate(-742.391 179.334)" fill="#e2e8ef"/>
    <ellipse id="Ellipse_91" data-name="Ellipse 91" cx="10.525" cy="10.005" rx="10.525" ry="10.005" transform="translate(-714.178 231.839)" fill="#e2e8ef"/>
    <circle id="Ellipse_88" data-name="Ellipse 88" cx="5.112" cy="5.112" r="5.112" transform="translate(-585.851 233.623)" fill="#e2e8ef"/>
    <circle id="Ellipse_90" data-name="Ellipse 90" cx="9.032" cy="9.032" r="9.032" transform="translate(-526.274 166.202)" fill="#e2e8ef"/>
    <g id="Group_1182" data-name="Group 1182" transform="translate(-494.889 141.15)">
      <g id="Group_1181" data-name="Group 1181">
        <g id="Group_1164" data-name="Group 1164" transform="translate(0 69.306) rotate(-11)">
          <g id="Group_1160" data-name="Group 1160" transform="translate(0 0)">
            <path id="Path_5316" data-name="Path 5316" d="M.329,15.946A30.51,30.51,0,0,1,7.406,2.058,6.717,6.717,0,0,1,9.622.263a2.671,2.671,0,0,1,2.721.228,3.082,3.082,0,0,1,.518,3.462,11.935,11.935,0,0,1-3.14,4.042L0,17.338" transform="translate(33.604 16.839)" fill="#3f4a58"/>
            <path id="Path_5317" data-name="Path 5317" d="M.312,7.542A23.537,23.537,0,0,1,12.128.281a5.912,5.912,0,0,1,2.5-.223,2.413,2.413,0,0,1,1.9,1.48,2.5,2.5,0,0,1-1.174,2.705,7.312,7.312,0,0,1-3.012.9L5.489,6.152C3.425,6.455,1.1,6.923,0,8.7" transform="translate(31.037 30.271)" fill="#3f4a58"/>
            <path id="Path_5318" data-name="Path 5318" d="M5.6,19.073A30.99,30.99,0,0,0,6.537,4.892a7.71,7.71,0,0,0-1.3-3.543A3.148,3.148,0,0,0,1.873.133,3.081,3.081,0,0,0,.021,2.776a6.828,6.828,0,0,0,.686,3.3c.958,2.245,2.358,4.276,3.407,6.48A10.865,10.865,0,0,1,5.291,19.64" transform="translate(25.066 20.212)" fill="#3f4a58"/>
            <path id="Path_5319" data-name="Path 5319" d="M5.355,22.392A38.372,38.372,0,0,1,.031,5.005a7.368,7.368,0,0,1,.3-3.078A2.87,2.87,0,0,1,2.588.009C4.063-.125,5.24,1.253,5.794,2.627c2.388,5.917-1.735,12.6-.758,18.9" transform="translate(7.453 0)" fill="#3f4a58"/>
            <path id="Path_5320" data-name="Path 5320" d="M.114,14.414c-.423-2.523.408-5.072,1.275-7.479a14.772,14.772,0,0,1,3.26-5.889A3.211,3.211,0,0,1,6.816,0,2.556,2.556,0,0,1,9.089,2.464a4.669,4.669,0,0,1-1.4,3.3A35.46,35.46,0,0,1,4.909,8.189a15.255,15.255,0,0,0-4.74,7.966" transform="translate(12.962 8.304)" fill="#3f4a58"/>
            <path id="Path_5321" data-name="Path 5321" d="M13.052,10.377A29.518,29.518,0,0,0,9.645,4,9.933,9.933,0,0,0,3.756.075c-1.381-.249-3.1.1-3.618,1.4a2.591,2.591,0,0,0,.54,2.515A6.676,6.676,0,0,0,2.849,5.561,35.075,35.075,0,0,0,9.476,8.173a8.989,8.989,0,0,1,2.5.941,2.606,2.606,0,0,1,1.307,2.2" transform="translate(0 13.771)" fill="#3f4a58"/>
            <path id="Path_5322" data-name="Path 5322" d="M12.3,19.823A58.182,58.182,0,0,0,6.576,3.582,8.02,8.02,0,0,0,4.506.732,3.025,3.025,0,0,0,1.19.337a3.065,3.065,0,0,0-1.029,3.5,8.635,8.635,0,0,0,2.2,3.209C6.02,10.9,10,14.771,11.649,19.822" transform="translate(11.408 46.368)" fill="#3f4a58"/>
            <path id="Path_5323" data-name="Path 5323" d="M0,15.247A23.66,23.66,0,0,1,5.763,1.515,4.08,4.08,0,0,1,7.807.049c1.8-.4,3.363,1.681,3.154,3.509S9.4,6.853,8.036,8.089a42.964,42.964,0,0,1-5.812,4.434C1.054,13.269.1,13.863,0,15.247" transform="translate(23.177 50.024)" fill="#3f4a58"/>
          </g>
          <g id="Group_1163" data-name="Group 1163" transform="translate(10.902 12.081)">
            <g id="Group_1161" data-name="Group 1161" transform="translate(12.448 13.55)">
              <path id="Path_5324" data-name="Path 5324" d="M15.6.008c.221.173-1.234,2.135-3.323,5.464l-.813,1.311c-.281.456-.549.947-.84,1.445-.594.991-1.161,2.088-1.775,3.232a83.01,83.01,0,0,0-3.468,7.7A83.1,83.1,0,0,0,2.8,27.2c-.31,1.261-.624,2.455-.846,3.589-.116.566-.246,1.108-.343,1.636s-.187,1.034-.274,1.518c-.677,3.872-.91,6.3-1.19,6.284C-.077,40.213-.1,37.743.46,33.8q.113-.738.236-1.544c.085-.537.206-1.089.316-1.663.208-1.152.513-2.365.82-3.645a79.546,79.546,0,0,1,2.6-8.155A79.579,79.579,0,0,1,7.962,11C8.591,9.84,9.176,8.735,9.793,7.74c.3-.5.583-.991.879-1.447l.858-1.3C13.755,1.686,15.424-.135,15.6.008Z" transform="translate(0 0)" fill="#3f4a58"/>
            </g>
            <g id="Group_1162" data-name="Group 1162" transform="translate(0 0)">
              <path id="Path_5325" data-name="Path 5325" d="M.143,0C.275-.006.411.76.607,2.13.836,3.5,1.171,5.473,1.8,7.87s1.537,5.208,2.676,8.3,2.49,6.458,3.767,10.065a75.257,75.257,0,0,1,2.92,10.4,67.747,67.747,0,0,1,1.2,8.741,50.35,50.35,0,0,1,.1,5.943c-.069,1.4-.2,2.173-.319,2.169-.286-.007-.2-3.095-.668-8.039a78.959,78.959,0,0,0-1.291-8.613,76.769,76.769,0,0,0-2.9-10.262C6.013,22.992,4.655,19.626,3.532,16.51a74.754,74.754,0,0,1-2.6-8.426,36.409,36.409,0,0,1-.91-5.891C-.034.783.022.005.143,0Z" fill="#3f4a58"/>
            </g>
          </g>
        </g>
        <g id="Group_1155" data-name="Group 1155" transform="translate(25.746 40.478)">
          <path id="Rectangle_1357" data-name="Rectangle 1357" d="M4.707,0H117.024a4.708,4.708,0,0,1,4.708,4.708V88.9a4.708,4.708,0,0,1-4.708,4.708H4.708A4.708,4.708,0,0,1,0,88.9V4.707A4.707,4.707,0,0,1,4.707,0Z" transform="translate(0 0)" fill="#136ad5"/>
          <rect id="Rectangle_1358" data-name="Rectangle 1358" width="113.546" height="76.424" transform="translate(4.063 12.21)" fill="#fff"/>
          <rect id="Rectangle_1360" data-name="Rectangle 1360" width="60.034" height="0.482" transform="translate(46.402 55.675)" fill="#136ad5"/>
          <rect id="Rectangle_1361" data-name="Rectangle 1361" width="60.034" height="0.482" transform="translate(46.402 49.133)" fill="#136ad5"/>
          <rect id="Rectangle_1362" data-name="Rectangle 1362" width="60.034" height="0.482" transform="translate(46.402 42.591)" fill="#136ad5"/>
          <path id="Path_5306" data-name="Path 5306" d="M91.094,261.737l-7.6,11.177V259.4a13.514,13.514,0,1,0,7.6,2.339Z" transform="translate(-57.48 -223.973)" fill="#ff8a2e"/>
        </g>
        <g id="Group_1169" data-name="Group 1169" transform="translate(80.332 20.609)">
          <g id="Group_1156" data-name="Group 1156">
            <path id="Path_5307" data-name="Path 5307" d="M291.139,275.035a198,198,0,0,0-25.868-77.3c-3.017-5.138-6.513-10.367-11.824-13.067s-12.894-1.809-15.819,3.382c-3.573,6.34,1.452,13.928,6.163,19.476,13,15.314,25.652,30.952,37.207,47.387,3.972,5.65,7.96,11.846,7.985,18.752" transform="translate(-226.76 -183.184)" fill="#3f4a58"/>
            <path id="Path_5308" data-name="Path 5308" d="M272.04,328.3c-3.634-15.545-14.473-28.423-26.376-39.061-6.2-5.543-13.168-10.834-21.371-12.208a11.5,11.5,0,0,0-5.442.166c-4.915,1.6-6.757,8.138-4.878,12.954s6.339,8.112,10.853,10.629c8.075,4.5,16.957,7.366,25.226,11.5s16.208,9.9,20.231,18.228" transform="translate(-213.251 -237.767)" fill="#3f4a58"/>
          </g>
          <path id="Path_5311" data-name="Path 5311" d="M270,210c4.434,6.078,8.908,12.606,13.341,19.594a365.557,365.557,0,0,1,20.011,35.853" transform="translate(-246.342 -198.821)" fill="none" stroke="#fff" stroke-linecap="round" stroke-linejoin="round" stroke-width="1"/>
          <path id="Path_5312" data-name="Path 5312" d="M236.243,300.735a95.965,95.965,0,0,1,51.8,43.676" transform="translate(-226.658 -251.729)" fill="none" stroke="#fff" stroke-linecap="round" stroke-linejoin="round" stroke-width="1"/>
        </g>
        <g id="Group_1170" data-name="Group 1170" transform="translate(132.301)">
          <g id="Group_1157" data-name="Group 1157" transform="translate(190.094 83.157)">
            <path id="Path_5309" data-name="Path 5309" d="M798.587,403.417a97.778,97.778,0,0,1,20.7-52.71c2.065-2.606,4.361-5.181,7.386-6.562s6.956-1.278,9.313,1.068c2.253,2.243,2.486,5.931,1.407,8.921s-3.231,5.45-5.337,7.833l-23.705,26.814c-3.905,4.417-8,9.239-8.621,15.1" transform="translate(-798.587 -343.247)" fill="#3f4a58"/>
            <path id="Path_5310" data-name="Path 5310" d="M801.082,447.187c6.826-10.93,15.468-21.418,27.311-26.5a13.932,13.932,0,0,1,5.692-1.385,5.541,5.541,0,0,1,5.95,5.512c.2,3.909-2.35,7.536-5.569,9.762s-7.056,3.336-10.779,4.546a161.2,161.2,0,0,0-23.07,9.538" transform="translate(-799.771 -387.595)" fill="#3f4a58"/>
          </g>
          <path id="Path_5313" data-name="Path 5313" d="M825.6,360.5q-5.382,5.888-10.839,12.507A312.355,312.355,0,0,0,793.5,402.189" transform="translate(-605.527 -270.15)" fill="none" stroke="#fff" stroke-linecap="round" stroke-linejoin="round" stroke-width="1"/>
          <path id="Path_5314" data-name="Path 5314" d="M837.764,437.5A74.357,74.357,0,0,0,811.5,454.593" transform="translate(-616.022 -315.05)" fill="none" stroke="#fff" stroke-linecap="round" stroke-linejoin="round" stroke-width="1"/>
          <path id="Rectangle_1363" data-name="Rectangle 1363" d="M4.707,0H193.628a4.708,4.708,0,0,1,4.708,4.708V147.55a4.708,4.708,0,0,1-4.708,4.708H4.708A4.708,4.708,0,0,1,0,147.55V4.707A4.707,4.707,0,0,1,4.707,0Z" fill="#136ad5"/>
          <rect id="Rectangle_1364" data-name="Rectangle 1364" width="132.69" height="2.88" transform="translate(61.43 8.335)" fill="#fff"/>
          <rect id="Rectangle_1365" data-name="Rectangle 1365" width="190.003" height="127.623" transform="translate(4.117 19.894)" fill="#fff"/>
          <g id="Group_1158" data-name="Group 1158" transform="translate(14.653 31.115)">
            <rect id="Rectangle_1366" data-name="Rectangle 1366" width="78.658" height="0.381" fill="#136ad5"/>
            <rect id="Rectangle_1367" data-name="Rectangle 1367" width="78.658" height="0.381" transform="translate(0 7.419)" fill="#136ad5"/>
            <rect id="Rectangle_1368" data-name="Rectangle 1368" width="78.658" height="0.381" transform="translate(0 14.839)" fill="#136ad5"/>
            <rect id="Rectangle_1369" data-name="Rectangle 1369" width="78.658" height="0.381" transform="translate(0 22.258)" fill="#136ad5"/>
            <rect id="Rectangle_1370" data-name="Rectangle 1370" width="78.658" height="0.381" transform="translate(0 29.677)" fill="#136ad5"/>
            <rect id="Rectangle_1371" data-name="Rectangle 1371" width="78.658" height="0.381" transform="translate(0 37.097)" fill="#136ad5"/>
            <rect id="Rectangle_1372" data-name="Rectangle 1372" width="78.658" height="0.381" transform="translate(0 44.516)" fill="#136ad5"/>
          </g>
          <path id="Path_5315" data-name="Path 5315" d="M602.142,214.353a24.951,24.951,0,1,0-8.141,8h0l10.382,2.232-2.218-10.253Z" transform="translate(-504.67 -135.819)" fill="#ff8a2e"/>
        </g>
      </g>
      <g id="Group_503" data-name="Group 503" transform="translate(253.84 66.458)">
        <path id="Path_613" data-name="Path 613" d="M675.327,303a31.546,31.546,0,0,0-31.546,31.546v2.816l-9.635,20.4h10.083a31.227,31.227,0,0,0,1.061,4.375,3.036,3.036,0,0,0,.249,4.224,2.994,2.994,0,0,0-.608,1.806,3.06,3.06,0,0,0,1.661,2.7v1.051a12.127,12.127,0,0,0,12.126,12.128h48.147v-49.5A31.545,31.545,0,0,0,675.327,303Z" transform="translate(-634.145 -303)" fill="#ebebeb"/>
        <path id="Path_614" data-name="Path 614" d="M691.575,419.04a8.545,8.545,0,1,1-8.548-8.541h0a8.535,8.535,0,0,1,8.543,8.527Z" transform="translate(-657.668 -365.684)" fill="#dce4e7"/>
        <circle id="Ellipse_9" data-name="Ellipse 9" cx="1.807" cy="1.807" r="1.807" transform="translate(16.864 32.974)" fill="#5c5c5c"/>
      </g>
    </g>
  </g>
</svg>
