<svg height="1878" viewBox="0 0 1449.059 1878" width="1449.059" xmlns="http://www.w3.org/2000/svg" xmlns:xlink="http://www.w3.org/1999/xlink"><clipPath id="a"><path d="m0 0h1440v997h-1440z"/></clipPath><clipPath id="b"><path d="m0 0h1440v616h-1440z"/></clipPath><path d="m0 0h1440v1878h-1440z" fill="#fafafa"/><g clip-path="url(#a)"><path d="m0 0 32.179 26.8" fill="none" stroke="#65aaff" stroke-linecap="round" stroke-miterlimit="10" stroke-width="12" transform="matrix(.99719951 .07478728 -.07478728 .99719951 2.005 183.775)"/><path d="m0 0-32.179 26.8" fill="none" stroke="#65aaff" stroke-linecap="round" stroke-miterlimit="10" stroke-width="12" transform="matrix(.99719951 -.07478728 .07478728 .99719951 32.089 183.775)"/><g fill="#136ad5" transform="translate(-5 836.368)"><ellipse cx="10" cy="9.606" rx="10" ry="9.606"/><ellipse cx="10" cy="9.606" rx="10" ry="9.606" transform="translate(0 28.819)"/><ellipse cx="10" cy="9.606" rx="10" ry="9.606" transform="translate(30)"/><ellipse cx="10" cy="9.606" rx="10" ry="9.606" transform="translate(30 28.819)"/></g><ellipse cx="10" cy="9.506" fill="#d0e5ff" rx="10" ry="9.506" transform="translate(158 52.354)"/><ellipse cx="10" cy="9.506" fill="#d0e5ff" rx="10" ry="9.506" transform="translate(166 729.58)"/><g fill="#136ad5" transform="translate(1394 121.368)"><ellipse cx="10" cy="9.606" rx="10" ry="9.606"/><ellipse cx="10" cy="9.606" rx="10" ry="9.606" transform="translate(0 28.819)"/><ellipse cx="10" cy="9.606" rx="10" ry="9.606" transform="translate(30)"/><ellipse cx="10" cy="9.606" rx="10" ry="9.606" transform="translate(30 28.819)"/></g></g><path d="m0 0 32.179 26.8" fill="none" stroke="#65aaff" stroke-linecap="round" stroke-miterlimit="10" stroke-width="12" transform="matrix(.99719951 .07478728 -.07478728 .99719951 1407.911 921.775)"/><path d="m0 0-32.179 26.8" fill="none" stroke="#65aaff" stroke-linecap="round" stroke-miterlimit="10" stroke-width="12" transform="matrix(.99719951 -.07478728 .07478728 .99719951 1437.995 921.775)"/><g clip-path="url(#b)" transform="translate(0 1252)"><path d="m0 0 32.15 26.778" fill="none" stroke="#65aaff" stroke-linecap="round" stroke-miterlimit="10" stroke-width="12" transform="matrix(.99719951 .07478728 -.07478728 .99719951 2.003 165.627)"/><path d="m32.15 0-32.15 26.778" fill="none" stroke="#65aaff" stroke-linecap="round" stroke-miterlimit="10" stroke-width="12" transform="matrix(.99719951 -.07478728 .07478728 .99719951 0 168.031)"/><ellipse cx="9.991" cy="9.498" fill="#d0e5ff" rx="9.991" ry="9.498" transform="translate(157 43.315)"/><g fill="#136ad5" transform="translate(1396 235.156)"><ellipse cx="9.991" cy="9.598" rx="9.991" ry="9.598"/><ellipse cx="9.991" cy="9.598" rx="9.991" ry="9.598" transform="translate(0 28.794)"/><ellipse cx="9.991" cy="9.598" rx="9.991" ry="9.598" transform="translate(30)"/><ellipse cx="9.991" cy="9.598" rx="9.991" ry="9.598" transform="translate(30 28.794)"/></g></g></svg>