<svg xmlns="http://www.w3.org/2000/svg" xmlns:xlink="http://www.w3.org/1999/xlink" width="518.291" height="335.028" viewBox="0 0 518.291 335.028">
  <defs>
    <linearGradient id="linear-gradient" x1="0.5" x2="0.5" y2="1" gradientUnits="objectBoundingBox">
      <stop offset="0" stop-color="#ebebeb"/>
      <stop offset="1" stop-color="#fafafa" stop-opacity="0"/>
    </linearGradient>
  </defs>
  <g id="main-tigea-img" transform="translate(-744.593 -156.717)">
    <path id="Path_5315" data-name="Path 5315" d="M560.708,222.135a30.014,30.014,0,1,1,9.793,9.622h0l-12.488,2.684,2.668-12.333Z" transform="translate(604.212 28.589)" fill="#e2e8ef"/>
    <g id="Group_1211" data-name="Group 1211" transform="translate(936.824 220.589)">
      <g id="Group_504" data-name="Group 504" transform="translate(39.573 0)">
        <path id="Path_615" data-name="Path 615" d="M569.88,1005.106a49.936,49.936,0,0,0-49.935,49.92v4.469L504.7,1091.773h15.958a48.368,48.368,0,0,0,1.675,6.93,12.857,12.857,0,0,1-.561,9.54,4.843,4.843,0,0,0,2.625,4.293v1.649a19.194,19.194,0,0,0,19.191,19.2H619.8v-78.356A49.922,49.922,0,0,0,569.88,1005.106Z" transform="translate(-504.701 -1005.106)" fill="#ebebeb"/>
        <path id="Path_616" data-name="Path 616" d="M547.852,1037.225a13.526,13.526,0,1,1-13.52-13.535A13.521,13.521,0,0,1,547.852,1037.225Z" transform="translate(-494.189 -952.774)" fill="#dce4e7"/>
        <path id="Path_617" data-name="Path 617" d="M532.087,1021.64a2.858,2.858,0,1,1-2.854-2.862A2.853,2.853,0,0,1,532.087,1021.64Z" transform="translate(-499.679 -966.606)" fill="#5c5c5c"/>
      </g>
      <rect id="Rectangle_1374" data-name="Rectangle 1374" width="58.666" height="17.497" transform="translate(95.872 128.113)" fill="#ebebeb"/>
      <path id="Rectangle_1375" data-name="Rectangle 1375" d="M30,0H197.748a30,30,0,0,1,30,30v96.718a0,0,0,0,1,0,0H0a0,0,0,0,1,0,0V30A30,30,0,0,1,30,0Z" transform="translate(10 144.437)" fill="url(#linear-gradient)"/>
    </g>
    <path id="Path_5334" data-name="Path 5334" d="M13947.316-7228.5v76.7h47.668v87.207" transform="translate(-13126 7524)" fill="none" stroke="#f5f5f5" stroke-linecap="round" stroke-linejoin="round" stroke-width="4"/>
    <g id="Group_1218" data-name="Group 1218" transform="translate(805.218 204.589)">
      <path id="Path_5328" data-name="Path 5328" d="M5.3,10.771a15.507,15.507,0,0,1,21.959,0,3.107,3.107,0,0,0,4.394-4.394,21.721,21.721,0,0,0-30.747,0A3.107,3.107,0,0,0,5.3,10.771Z" transform="translate(0 0)" fill="#136ad5"/>
      <path id="Path_5329" data-name="Path 5329" d="M14.092,7.124a3.107,3.107,0,0,0,0-4.394A9.321,9.321,0,0,0,.91,2.73,3.107,3.107,0,1,0,5.3,7.124a3.107,3.107,0,0,1,4.394,0A3.107,3.107,0,0,0,14.092,7.124Z" transform="translate(8.783 12.428)" fill="#136ad5"/>
      <ellipse id="Ellipse_92" data-name="Ellipse 92" cx="3.111" cy="3.111" rx="3.111" ry="3.111" transform="translate(13.279 24.85)" fill="#136ad5"/>
    </g>
    <g id="Group_1219" data-name="Group 1219" transform="translate(744.593 244.956)">
      <path id="Path_5327" data-name="Path 5327" d="M146.75,74.425l-9.074-48.253A32.023,32.023,0,0,0,106.176,0H32.341A32.045,32.045,0,0,0,.865,26.047c0,.007,0,.015,0,.022A47,47,0,0,0,0,33.256C0,50.921,10.4,66.818,28.07,66.818l7.855-2.746h66.668l5.377,21.771a20,20,0,0,0,39.4-4.85,35.413,35.413,0,0,0-.616-6.568Z" transform="translate(8.848 0)" fill="#f5f5f5"/>
      <path id="Path_5330" data-name="Path 5330" d="M22.883,9.153H18.306V4.577a4.577,4.577,0,1,0-9.153,0V9.153H4.577a4.577,4.577,0,0,0,0,9.153H9.153v4.577a4.577,4.577,0,1,0,9.153,0V18.306h4.577a4.577,4.577,0,1,0,0-9.153Z" transform="translate(27.459 18.306)" fill="#136ad5"/>
      <ellipse id="Ellipse_93" data-name="Ellipse 93" cx="5.413" cy="5.413" rx="5.413" ry="5.413" transform="translate(101.393 18.306)" fill="#ff8a2e"/>
      <ellipse id="Ellipse_94" data-name="Ellipse 94" cx="5.413" cy="5.413" rx="5.413" ry="5.413" transform="translate(118.333 18.306)" fill="#136ad5"/>
      <ellipse id="Ellipse_95" data-name="Ellipse 95" cx="5.413" cy="5.413" rx="5.413" ry="5.413" transform="translate(101.393 34.545)" fill="#136ad5"/>
      <ellipse id="Ellipse_96" data-name="Ellipse 96" cx="5.413" cy="5.413" rx="5.413" ry="5.413" transform="translate(118.333 34.545)" fill="#ff8a2e"/>
      <path id="Path_5331" data-name="Path 5331" d="M9.709,0,.617,48.351A35.434,35.434,0,0,0,0,54.924a20,20,0,0,0,39.4,4.837L44.773,38H41.189A32.074,32.074,0,0,1,9.709,0Z" transform="translate(0 26.069)" fill="#e2e8ef"/>
    </g>
    <g id="Group_4" data-name="Group 4" transform="translate(948.953 165.775)">
      <path id="Line_3" data-name="Line 3" d="M0,0,28.774,23.966" transform="translate(1.792 0) rotate(4.289)" fill="none" stroke="#f5f5f5" stroke-linecap="round" stroke-miterlimit="10" stroke-width="12"/>
      <path id="Line_3-2" data-name="Line 3" d="M28.774,0,0,23.966" transform="translate(0 2.152) rotate(-4.289)" fill="none" stroke="#f5f5f5" stroke-linecap="round" stroke-miterlimit="10" stroke-width="12"/>
    </g>
    <g id="Group_6_Copy" data-name="Group 6 Copy" transform="translate(1215 304.368)">
      <ellipse id="Oval" cx="8.942" cy="8.59" rx="8.942" ry="8.59" transform="translate(0 0)" fill="#f5f5f5"/>
      <ellipse id="Oval_Copy_2" data-name="Oval Copy 2" cx="8.942" cy="8.59" rx="8.942" ry="8.59" transform="translate(0 28.819)" fill="#f5f5f5"/>
      <ellipse id="Oval_Copy" data-name="Oval Copy" cx="8.942" cy="8.59" rx="8.942" ry="8.59" transform="translate(30 0)" fill="#f5f5f5"/>
      <ellipse id="Oval_Copy_3" data-name="Oval Copy 3" cx="8.942" cy="8.59" rx="8.942" ry="8.59" transform="translate(30 28.819)" fill="#f5f5f5"/>
    </g>
  </g>
</svg>
