<svg xmlns="http://www.w3.org/2000/svg" width="32.414" height="32.414" viewBox="0 0 32.414 32.414">
  <g id="Group_1266" data-name="Group 1266" transform="translate(1.414 1)">
    <path id="Path_3759" data-name="Path 3759" d="M-374.456,69.922l5.946-5.725a2.871,2.871,0,0,1,3.949,0h0a2.619,2.619,0,0,1-.026,3.827l-9.349,8.77a5.405,5.405,0,0,1-3.7,1.448h-9.77l-2.636,2.538" transform="translate(393.743 -50.78)" fill="none" stroke="#136ad5" stroke-linecap="round" stroke-linejoin="round" stroke-width="2"/>
    <path id="Path_3760" data-name="Path 3760" d="M-383.219,71.864h5.741a2.551,2.551,0,0,0,2.551-2.551h0a2.551,2.551,0,0,0-2.551-2.552h-8.411a5.1,5.1,0,0,0-3.608,1.495l-4.246,4.246" transform="translate(393.743 -50.67)" fill="none" stroke="#136ad5" stroke-linecap="round" stroke-linejoin="round" stroke-width="2"/>
    <line id="Line_147" data-name="Line 147" y2="1" transform="translate(15.5 3.5)" fill="none" stroke="#ff8a2e" stroke-linecap="round" stroke-linejoin="round" stroke-width="2"/>
    <line id="Line_148" data-name="Line 148" y2="1" transform="translate(15.5 11.5)" fill="none" stroke="#ff8a2e" stroke-linecap="round" stroke-linejoin="round" stroke-width="2"/>
    <path id="Path_3761" data-name="Path 3761" d="M-381.3,61.292h2.705a1.5,1.5,0,0,0,1.5-1.5h0a1.5,1.5,0,0,0-1.5-1.5h-.6a1.5,1.5,0,0,1-1.5-1.5h0a1.5,1.5,0,0,1,1.5-1.5h2.706" transform="translate(394.805 -50.519)" fill="none" stroke="#ff8a2e" stroke-linecap="round" stroke-linejoin="round" stroke-width="2"/>
    <path id="Path_3762" data-name="Path 3762" d="M-383.219,63.882a7,7,0,0,1-2.551-5.413,7.016,7.016,0,0,1,7.016-7.016,7.016,7.016,0,0,1,7.016,7.016,7,7,0,0,1-2.551,5.413" transform="translate(394.264 -51.453)" fill="none" stroke="#136ad5" stroke-linecap="round" stroke-linejoin="round" stroke-width="2"/>
  </g>
</svg>
