<svg xmlns="http://www.w3.org/2000/svg" width="31.414" height="32.414" viewBox="0 0 31.414 32.414">
  <g id="service-icon1" transform="translate(1.414 1)">
    <path id="Path_3759" data-name="Path 3759" d="M-375.049,69.922l5.72-5.725a2.686,2.686,0,0,1,3.8,0h0a2.69,2.69,0,0,1-.025,3.827l-8.993,8.77a5.093,5.093,0,0,1-3.558,1.448h-9.4l-2.536,2.538" transform="translate(393.743 -50.78)" fill="none" stroke="#136ad5" stroke-linecap="round" stroke-linejoin="round" stroke-width="2"/>
    <path id="Path_3760" data-name="Path 3760" d="M-383.219,71.864h5.741a2.551,2.551,0,0,0,2.551-2.551h0a2.551,2.551,0,0,0-2.551-2.552h-8.411a5.1,5.1,0,0,0-3.608,1.495l-4.246,4.246" transform="translate(393.743 -50.67)" fill="none" stroke="#136ad5" stroke-linecap="round" stroke-linejoin="round" stroke-width="2"/>
    <line id="Line_147" data-name="Line 147" y2="1.913" transform="translate(14.978 2.914)" fill="none" stroke="#ff8a2e" stroke-linecap="round" stroke-linejoin="round" stroke-width="2"/>
    <line id="Line_148" data-name="Line 148" y2="1.913" transform="translate(14.978 11.077)" fill="none" stroke="#ff8a2e" stroke-linecap="round" stroke-linejoin="round" stroke-width="2"/>
    <path id="Path_3761" data-name="Path 3761" d="M-381.3,61.659h2.87a1.6,1.6,0,0,0,1.6-1.6h0a1.6,1.6,0,0,0-1.6-1.595h-.638a1.594,1.594,0,0,1-1.594-1.594h0a1.6,1.6,0,0,1,1.594-1.6h2.871" transform="translate(393.732 -50.519)" fill="none" stroke="#ff8a2e" stroke-linecap="round" stroke-linejoin="round" stroke-width="2"/>
    <path id="Path_3762" data-name="Path 3762" d="M-383.219,63.882a7,7,0,0,1-2.551-5.413,7.016,7.016,0,0,1,7.016-7.016,7.016,7.016,0,0,1,7.016,7.016,7,7,0,0,1-2.551,5.413" transform="translate(393.732 -51.453)" fill="none" stroke="#136ad5" stroke-linecap="round" stroke-linejoin="round" stroke-width="2"/>
  </g>
</svg>
