<svg xmlns="http://www.w3.org/2000/svg" width="20.625" height="19.913" viewBox="0 0 20.625 19.913">
  <path id="megaphone" d="M16.82,19.678A21.162,21.162,0,0,0,8,21.984L4.578,23.963a1.893,1.893,0,0,1-2.584-.693L.253,20.255a1.894,1.894,0,0,1,.693-2.584l2.839-1.639a.344.344,0,0,1,.47.126l2.231,3.864a.344.344,0,0,0,.478.121.353.353,0,0,0,.11-.477L4.826,15.773a.343.343,0,0,1,.1-.454,21.156,21.156,0,0,0,5.85-6.109,1.439,1.439,0,0,1,2.463.048L18.01,17.52A1.439,1.439,0,0,1,16.82,19.678Zm.612-5.754a2.151,2.151,0,0,0-1.373-2.371.344.344,0,0,0-.414.5l1.15,1.991A.344.344,0,0,0,17.432,13.924ZM9.5,26.088,7.866,23.256a.344.344,0,0,0-.47-.126L5.3,24.34a.344.344,0,0,0-.126.47l1.634,2.83a1.117,1.117,0,0,0,.97.559c.372,0,.514-.126,1.311-.586A1.119,1.119,0,0,0,9.5,26.088ZM19.942,11.31a.344.344,0,1,0-.344-.6l-.889.514a.344.344,0,0,0,.172.642C19,11.87,18.979,11.867,19.942,11.31ZM16.781,9.529,17,8.72a.344.344,0,1,0-.664-.178l-.217.809a.344.344,0,1,0,.664.178Zm3.832,5.452a.344.344,0,0,0-.243-.421l-.809-.217a.344.344,0,0,0-.178.664,5.572,5.572,0,0,0,.9.229A.344.344,0,0,0,20.613,14.981Z" transform="translate(0 -8.287)" fill="#707070"/>
</svg>
