<svg xmlns="http://www.w3.org/2000/svg" width="16.589" height="15.748" viewBox="0 0 16.589 15.748">
  <g id="news" transform="translate(0 0)">
    <g id="Component_120_1" data-name="Component 120 – 1" transform="translate(0 0)">
      <path id="Path_287" data-name="Path 287" d="M35.995,41.188H21.414a1,1,0,0,1-1-1V26.444a1,1,0,0,1,1-1h14.58a1,1,0,0,1,1,1V40.183A1,1,0,0,1,35.995,41.188Z" transform="translate(-20.41 -25.44)" fill="#707070"/>
    </g>
    <g id="Group_106" data-name="Group 106" transform="translate(2.438 2.402)">
      <g id="Group_102" data-name="Group 102" transform="translate(0.307)">
        <g id="Group_98" data-name="Group 98" transform="translate(0 0.052)">
          <path id="Path_288" data-name="Path 288" d="M49.215,52.268h-.293a.248.248,0,0,1-.24-.145l-.644-1.259-.282-.637h-.019c.005.046.016.151.034.316s.031.307.04.425.013.23.013.333v.633a.331.331,0,1,1-.663,0V49.615a.243.243,0,0,1,.255-.255h.271a.283.283,0,0,1,.271.164l.637,1.228.286.644H48.9a10.292,10.292,0,0,1-.1-1.075v-.629a.331.331,0,0,1,.663,0v2.319a.252.252,0,0,1-.069.185A.245.245,0,0,1,49.215,52.268Z" transform="translate(-47.16 -49.36)" fill="#fff"/>
        </g>
        <g id="Group_99" data-name="Group 99" transform="translate(2.983 0.054)">
          <path id="Path_289" data-name="Path 289" d="M77.823,52.286H76.485a.243.243,0,0,1-.255-.255V49.635a.243.243,0,0,1,.255-.255h1.3a.289.289,0,0,1,0,.579h-.858V50.5h.682a.293.293,0,0,1,0,.587h-.682V51.7h.9a.294.294,0,0,1,0,.589Z" transform="translate(-76.23 -49.38)" fill="#fff"/>
        </g>
        <g id="Group_100" data-name="Group 100" transform="translate(5.206 0.055)">
          <path id="Path_290" data-name="Path 290" d="M100.663,52.295h-.446a.254.254,0,0,1-.164-.055.25.25,0,0,1-.088-.147l-.218-1.064q-.077-.374-.115-.675h-.019q-.069.428-.115.675l-.209,1.049a.271.271,0,0,1-.089.158.263.263,0,0,1-.173.06H98.61a.274.274,0,0,1-.177-.061.252.252,0,0,1-.089-.16l-.438-2.41a.235.235,0,0,1,.038-.2.223.223,0,0,1,.187-.076h.206a.257.257,0,0,1,.177.063.268.268,0,0,1,.086.166q.168,1.19.271,2.017h.015q.038-.214.171-.922l.24-1.075a.287.287,0,0,1,.122-.183.423.423,0,0,1,.449,0,.289.289,0,0,1,.122.183l.251,1.075c.023.117.054.288.1.515s.065.362.073.408h.02c.013-.112.032-.271.057-.478s.043-.355.053-.444l.145-1.022a.312.312,0,0,1,.344-.3q.366,0,.3.362l-.4,2.322a.256.256,0,0,1-.264.22Z" transform="translate(-97.899 -49.39)" fill="#fff"/>
        </g>
        <g id="Group_101" data-name="Group 101" transform="translate(9.016)">
          <path id="Path_291" data-name="Path 291" d="M137.117,50.955a.8.8,0,0,1-.316.662,1.245,1.245,0,0,1-.789.246,1.626,1.626,0,0,1-.839-.229.263.263,0,0,1-.057-.424.325.325,0,0,1,.48-.061,1.023,1.023,0,0,0,.431.114q.377,0,.378-.255c0-.089-.055-.162-.168-.222-.031-.017-.111-.053-.24-.107l-.373-.156a1.039,1.039,0,0,1-.422-.3.746.746,0,0,1-.166-.493.791.791,0,0,1,.3-.624,1.12,1.12,0,0,1,.755-.253,1.347,1.347,0,0,1,.74.213.238.238,0,0,1,.038.378.294.294,0,0,1-.427.08.852.852,0,0,0-.351-.076.439.439,0,0,0-.253.065.205.205,0,0,0-.093.18.184.184,0,0,0,.089.162,1.774,1.774,0,0,0,.3.143.348.348,0,0,1,.049.019l.362.145A.813.813,0,0,1,137.117,50.955Z" transform="translate(-135.033 -48.85)" fill="#fff"/>
        </g>
      </g>
      <g id="Group_103" data-name="Group 103" transform="translate(0 4.884)">
        <path id="Path_292" data-name="Path 292" d="M55.518,97.183H44.536a.366.366,0,1,1,0-.733H55.518a.366.366,0,1,1,0,.733Z" transform="translate(-44.17 -96.45)" fill="#fff"/>
      </g>
      <g id="Group_104" data-name="Group 104" transform="translate(0 7.547)">
        <path id="Path_293" data-name="Path 293" d="M55.518,123.143H44.536a.366.366,0,0,1,0-.733H55.518a.366.366,0,0,1,0,.733Z" transform="translate(-44.17 -122.41)" fill="#fff"/>
      </g>
      <g id="Group_105" data-name="Group 105" transform="translate(0 10.211)">
        <path id="Path_294" data-name="Path 294" d="M55.518,149.1H44.536a.366.366,0,0,1,0-.733H55.518a.366.366,0,0,1,0,.733Z" transform="translate(-44.17 -148.37)" fill="#fff"/>
      </g>
    </g>
  </g>
</svg>
