<svg xmlns="http://www.w3.org/2000/svg" width="74.484" height="60.429" viewBox="0 0 74.484 60.429">
  <g id="圖層_2" transform="translate(0)">
    <ellipse id="Ellipse_65" data-name="Ellipse 65" cx="37.242" cy="9.184" rx="37.242" ry="9.184" transform="translate(0 42.062)" fill="#bde1ff"/>
    <path id="Path_287_2_" d="M385.914,298.854H347.44a2.936,2.936,0,0,1-2.65-3.155V252.545a2.936,2.936,0,0,1,2.65-3.155h38.474a2.936,2.936,0,0,1,2.65,3.155V295.7a2.935,2.935,0,0,1-2.646,3.155Z" transform="translate(-330.627 -249.39)" fill="#ff8a2e"/>
    <g id="Group_103_1_" transform="translate(16.917 29.405)">
      <path id="Path_292_1_" d="M403.574,465.62H369.08a1.15,1.15,0,0,1,0-2.3h34.5a1.15,1.15,0,1,1,0,2.3Z" transform="translate(-367.93 -463.32)" fill="#fff"/>
    </g>
    <g id="Group_104_1_" transform="translate(16.917 39.839)">
      <path id="Path_293_1_" d="M403.575,535.21H369.081a1.15,1.15,0,1,1,0-2.3h34.5a1.15,1.15,0,0,1,0,2.3Z" transform="translate(-367.93 -532.91)" fill="#fff"/>
    </g>
    <g id="Group_103_2_" transform="translate(16.917 8.54)">
      <path id="Path_292_2_" d="M403.574,290.29H369.08a1.15,1.15,0,0,1,0-2.3h34.5a1.15,1.15,0,1,1,0,2.3Z" transform="translate(-367.93 -287.99)" fill="#fff"/>
    </g>
    <g id="Group_104_2_" transform="translate(16.917 18.973)">
      <path id="Path_293_2_" d="M403.575,359.88H369.081a1.15,1.15,0,1,1,0-2.3h34.5a1.15,1.15,0,0,1,0,2.3Z" transform="translate(-367.93 -357.58)" fill="#fff"/>
    </g>
    <path id="Path_287_1_" d="M446.4,335.854H407.93a2.936,2.936,0,0,1-2.65-3.155V289.545a2.936,2.936,0,0,1,2.65-3.155H446.4a2.936,2.936,0,0,1,2.65,3.155V332.7a2.935,2.935,0,0,1-2.646,3.155Z" transform="translate(-383.918 -281.987)" fill="#136ad5"/>
    <g id="Group_102" transform="translate(29.883 12.691)">
      <g id="Group_98" transform="translate(0 0.129)">
        <path id="Path_288" d="M479.873,363.931h-.724a.611.611,0,0,1-.591-.357l-1.589-3.1-.7-1.571h-.048c.013.114.04.371.083.779s.076.757.1,1.047.033.566.033.822v1.561a.722.722,0,0,1-.612.818.737.737,0,0,1-.2,0,.722.722,0,0,1-.818-.612.737.737,0,0,1,0-.2v-5.718a.6.6,0,0,1,.566-.629.564.564,0,0,1,.064,0h.668a.7.7,0,0,1,.668.4l1.571,3.028.706,1.589h.048a25.351,25.351,0,0,1-.236-2.651v-1.551a.818.818,0,0,1,1.635,0V363.3a.622.622,0,0,1-.17.456A.608.608,0,0,1,479.873,363.931Z" transform="translate(-474.8 -356.762)" fill="#fff"/>
      </g>
      <g id="Group_99" transform="translate(7.36 0.133)">
        <path id="Path_289" d="M520.322,363.948h-3.3a.6.6,0,0,1-.629-.566.537.537,0,0,1,0-.064v-5.9a.6.6,0,0,1,.566-.63.61.61,0,0,1,.064,0h3.2a.714.714,0,0,1,0,1.427h-2.115v1.326H519.8a.724.724,0,1,1,0,1.447h-1.683V362.5h2.209a.726.726,0,1,1,0,1.452Z" transform="translate(-516.392 -356.782)" fill="#fff"/>
      </g>
      <g id="Group_100" transform="translate(12.837 0.134)">
        <path id="Path_290" d="M554.146,363.948h-1.1a.624.624,0,0,1-.4-.137.617.617,0,0,1-.218-.363l-.537-2.623q-.189-.923-.283-1.665h-.048q-.171,1.053-.283,1.665l-.516,2.585a.66.66,0,0,1-.22.389.648.648,0,0,1-.427.145h-1.025a.678.678,0,0,1-.438-.149.622.622,0,0,1-.22-.4l-1.081-5.94a.58.58,0,0,1,.094-.488.551.551,0,0,1,.461-.187h.508a.634.634,0,0,1,.438.155.665.665,0,0,1,.213.409q.414,2.933.668,4.976h.037q.094-.527.422-2.274l.591-2.652a.706.706,0,0,1,.3-.45,1.04,1.04,0,0,1,1.108,0,.712.712,0,0,1,.3.45l.62,2.652c.056.288.134.71.236,1.271s.159.893.18,1.007h.048c.033-.276.078-.668.142-1.179s.106-.875.131-1.095l.357-2.519a.771.771,0,0,1,.793-.747.422.422,0,0,1,.055,0q.9,0,.744.893l-.995,5.722A.631.631,0,0,1,554.146,363.948Z" transform="translate(-547.327 -356.784)" fill="#fff"/>
      </g>
      <g id="Group_101" transform="translate(22.233 0)">
        <path id="Path_291" d="M605.553,361.222a1.963,1.963,0,0,1-.78,1.632,3.073,3.073,0,0,1-1.946.607,4.008,4.008,0,0,1-2.07-.564.647.647,0,0,1-.142-1.045.8.8,0,0,1,1.112-.206.83.83,0,0,1,.073.057,2.531,2.531,0,0,0,1.063.281q.93,0,.931-.63a.63.63,0,0,0-.414-.545c-.076-.043-.272-.131-.591-.263l-.921-.384a2.567,2.567,0,0,1-1.04-.749,1.843,1.843,0,0,1-.411-1.217,1.95,1.95,0,0,1,.733-1.538,2.757,2.757,0,0,1,1.861-.625,3.325,3.325,0,0,1,1.824.526.588.588,0,0,1,.194.808.576.576,0,0,1-.1.123.727.727,0,0,1-1,.233c-.018-.011-.036-.024-.052-.036a2.1,2.1,0,0,0-.865-.187,1.078,1.078,0,0,0-.625.159.505.505,0,0,0-.23.443.454.454,0,0,0,.22.4,4.371,4.371,0,0,0,.749.351.882.882,0,0,1,.121.048l.893.357A2,2,0,0,1,605.553,361.222Z" transform="translate(-600.412 -356.031)" fill="#fff"/>
      </g>
    </g>
    <g id="Group_103" transform="translate(26.341 27.289)">
      <path id="Path_292" d="M480.5,447.84H448.2a1.153,1.153,0,0,1,0-2.3H480.5a1.153,1.153,0,0,1,0,2.3Z" transform="translate(-447.12 -445.54)" fill="#0755a3"/>
    </g>
    <g id="Group_104" transform="translate(26.34 35.656)">
      <path id="Path_293" d="M480.494,500.06H448.188a1.153,1.153,0,0,1,0-2.3h32.307a1.153,1.153,0,0,1,0,2.3Z" transform="translate(-447.11 -497.76)" fill="#0755a3"/>
    </g>
    <g id="Group_105" transform="translate(26.34 44.021)">
      <path id="Path_294" d="M480.494,552.27H448.188a1.153,1.153,0,0,1,0-2.3h32.307a1.153,1.153,0,0,1,0,2.3Z" transform="translate(-447.11 -549.97)" fill="#0755a3"/>
    </g>
  </g>
</svg>
