<svg id="ig" xmlns="http://www.w3.org/2000/svg" xmlns:xlink="http://www.w3.org/1999/xlink" width="20" height="20" viewBox="0 0 20 20">
  <defs>
    <clipPath id="clip-path">
      <rect id="Rectangle_1434" data-name="Rectangle 1434" width="20" height="20" transform="translate(634 212)" fill="none" stroke="#707070" stroke-width="1"/>
    </clipPath>
  </defs>
  <g id="Mask_Group_33" data-name="Mask Group 33" transform="translate(-634 -212)" clip-path="url(#clip-path)">
    <g id="Icon_awesome-instagram" data-name="Icon awesome-instagram" transform="translate(634 212)">
      <path id="Icon_awesome-instagram-2" data-name="Icon awesome-instagram" d="M9.865,7.046a5.06,5.06,0,1,0,5.059,5.06A5.051,5.051,0,0,0,9.865,7.046Zm0,8.35a3.29,3.29,0,1,1,3.289-3.29A3.3,3.3,0,0,1,9.865,15.4Zm6.446-8.557a1.18,1.18,0,1,1-1.18-1.18A1.177,1.177,0,0,1,16.311,6.839Zm3.351,1.2A5.841,5.841,0,0,0,18.068,3.9a5.877,5.877,0,0,0-4.134-1.594c-1.629-.092-6.512-.092-8.141,0A5.869,5.869,0,0,0,1.658,3.9,5.861,5.861,0,0,0,.064,8.032c-.092,1.629-.092,6.513,0,8.143A5.841,5.841,0,0,0,1.658,20.31,5.885,5.885,0,0,0,5.792,21.9c1.629.092,6.512.092,8.141,0a5.839,5.839,0,0,0,4.134-1.594,5.88,5.88,0,0,0,1.594-4.135c.092-1.629.092-6.509,0-8.138Zm-2.1,9.887A3.33,3.33,0,0,1,15.681,19.8c-1.3.515-4.381.4-5.816.4s-4.522.115-5.816-.4a3.33,3.33,0,0,1-1.876-1.876c-.515-1.3-.4-4.382-.4-5.818s-.114-4.523.4-5.818A3.33,3.33,0,0,1,4.049,4.412c1.3-.515,4.381-.4,5.816-.4s4.522-.115,5.816.4a3.33,3.33,0,0,1,1.876,1.876c.515,1.3.4,4.382.4,5.818S18.072,16.628,17.557,17.923Z" transform="translate(0.005 -2.238)" fill="#136ad5"/>
    </g>
  </g>
</svg>
