<svg xmlns="http://www.w3.org/2000/svg" width="16.309" height="15.651" viewBox="0 0 16.309 15.651">
  <g id="favorite" transform="translate(5.893 2.266)">
    <path id="Path_277" data-name="Path 277" d="M16.236,16.21a1.412,1.412,0,0,0-1.363-.989H10.8l-1.283-3.9a1.412,1.412,0,0,0-1.361-.985H8.149a1.412,1.412,0,0,0-1.359,1L5.544,15.221H1.436A1.433,1.433,0,0,0,.6,17.816l3.324,2.4L2.641,24.1a1.412,1.412,0,0,0,.515,1.605,1.412,1.412,0,0,0,1.686,0l3.33-2.407,3.29,2.4a1.433,1.433,0,0,0,2.21-1.6l-1.249-3.9,3.3-2.407a1.412,1.412,0,0,0,.517-1.6Z" transform="translate(-5.893 -12.606)" fill="#707070"/>
  </g>
</svg>
