<svg id="Component_126_1" data-name="Component 126 – 1" xmlns="http://www.w3.org/2000/svg" width="17.284" height="17.284" viewBox="0 0 17.284 17.284">
  <g id="Component_17_1" data-name="Component 17 – 1">
    <path id="Path_2" data-name="Path 2" d="M2.161,7.562a5.349,5.349,0,0,1,5.4-5.4,5.349,5.349,0,0,1,5.4,5.4,5.349,5.349,0,0,1-5.4,5.4A5.349,5.349,0,0,1,2.161,7.562Zm13.287,9.4a1.069,1.069,0,1,0,1.512-1.512L13.611,12.1a7.4,7.4,0,0,0,1.512-4.537A7.515,7.515,0,0,0,7.562,0,7.515,7.515,0,0,0,0,7.562a7.515,7.515,0,0,0,7.562,7.562A7.4,7.4,0,0,0,12.1,13.611Z" transform="translate(0 0)" fill="#707070"/>
  </g>
</svg>
