<svg id="LOGO_暫時_" data-name="LOGO(暫時)" xmlns="http://www.w3.org/2000/svg" width="21.065" height="19.021" viewBox="0 0 21.065 19.021">
  <path id="Path_252" data-name="Path 252" d="M205.2,254.46a1.658,1.658,0,0,0-1.813-1.758l-.224-.833a.709.709,0,0,0,.724-.192.685.685,0,0,0,.2-.513.718.718,0,0,0-.709-.705.736.736,0,0,0-.724.839,1.926,1.926,0,0,0-1.108-.408,1.839,1.839,0,0,0-.5-1.338,1.891,1.891,0,0,0-1.321-.552,2.147,2.147,0,0,0-.365-1.029,1.779,1.779,0,0,0-1.7-.666,1.183,1.183,0,0,0-.539.309q-.809.812-1.62,1.621c-.033.033-.061.072-.1.113-.037-.032-.063-.052-.086-.075q-1.131-1.118-2.261-2.236a4.787,4.787,0,0,1-1.433-2.985,5.58,5.58,0,0,1,.972-3.791,5.921,5.921,0,0,1,3.174-2.412,5.138,5.138,0,0,1,4.18.349,5.19,5.19,0,0,1,1.285,1.031l-3.685,3.6-.731-.733.658-.662a.664.664,0,0,0,.221-.5.627.627,0,0,0-.408-.6.6.6,0,0,0-.688.133c-.244.235-.476.482-.713.724-.239-.235-.466-.455-.691-.678a.682.682,0,0,0-.536-.233.624.624,0,0,0-.578.42.594.594,0,0,0,.134.676c.238.242.485.474.745.727-.151.146-.286.276-.419.407s-.249.237-.361.367a.649.649,0,0,0,.946.884c.236-.23.464-.469.72-.729.1.114.2.218.295.319s.231.219.334.339a.68.68,0,0,0,1,.1c.37.274.719.569,1.1.809a2.9,2.9,0,0,0,3.3-.139,3.567,3.567,0,0,0,.355-.335l1.734-1.7c.031.028.059.053.086.079q2.182,2.17,4.365,4.338a1.024,1.024,0,0,1,.253.407,5.3,5.3,0,0,1-.113,3.831,6.019,6.019,0,0,1-3.27,3.353C205.258,254.439,205.233,254.446,205.2,254.46Zm1.172-5.555a.723.723,0,0,0-.72-.719.721.721,0,0,0-.01,1.442A.725.725,0,0,0,206.369,248.9Zm-3.71.007a.717.717,0,0,0,.694.728.72.72,0,1,0,.016-1.439A.713.713,0,0,0,202.658,248.912Zm2.268,2.289a.72.72,0,0,0,1.44.007.72.72,0,1,0-1.44-.007Z" transform="translate(-191.587 -237.562)" fill="#fff"/>
  <path id="Path_253" data-name="Path 253" d="M455.8,258.8l-6.944-6.91a.762.762,0,0,1-.084.131c-.74.729-1.484,1.453-2.22,2.186a2.157,2.157,0,0,1-1.177.585,2.3,2.3,0,0,1-1.787-.477c-.222-.157-.427-.339-.613-.489.288-.3.551-.6.831-.876.81-.8,1.638-1.578,2.437-2.388a7.612,7.612,0,0,1,3.066-1.912,7.488,7.488,0,0,1,1.484-.292,6.039,6.039,0,0,1,2.667.244,5.941,5.941,0,0,1,4.095,6.032,7.067,7.067,0,0,1-1.344,3.587C456.085,258.41,455.948,258.6,455.8,258.8Z" transform="translate(-436.506 -248.03)" fill="#fff"/>
  <path id="Path_254" data-name="Path 254" d="M348.121,644.445a1.982,1.982,0,0,1-.42-.17.811.811,0,0,1-.216-1.346c.586-.591,1.177-1.177,1.765-1.767a.431.431,0,0,1,.391-.12,1.077,1.077,0,0,1,1.005,1,.419.419,0,0,1-.135.362q-.9.892-1.807,1.779A.982.982,0,0,1,348.121,644.445Z" transform="translate(-343.211 -630.646)" fill="#fff"/>
  <path id="Path_255" data-name="Path 255" d="M491.118,785.392a1.1,1.1,0,0,1-.875-.533.777.777,0,0,1,.171-.961c.232-.235.469-.465.7-.7.311-.307.628-.609.932-.923a.516.516,0,0,1,.48-.152,1.193,1.193,0,0,1,1,1.074.406.406,0,0,1-.129.347c-.57.552-1.137,1.107-1.709,1.656A.777.777,0,0,1,491.118,785.392Z" transform="translate(-482.455 -768.095)" fill="#fff"/>
  <path id="Path_256" data-name="Path 256" d="M420.505,709.03a1.077,1.077,0,0,1,1.036.9.518.518,0,0,1-.162.511q-.862.849-1.724,1.7a.821.821,0,0,1-1.2,0,.771.771,0,0,1-.322-.613.94.94,0,0,1,.284-.629c.57-.571,1.143-1.138,1.71-1.712A.5.5,0,0,1,420.505,709.03Z" transform="translate(-412.295 -696.889)" fill="#fff"/>
  <path id="Path_257" data-name="Path 257" d="M563.84,855.656a.859.859,0,0,1-.844-1.173.7.7,0,0,1,.148-.206c.552-.534,1.112-1.06,1.659-1.6a.717.717,0,0,1,.682-.191.909.909,0,0,1,.795.807.794.794,0,0,1-.271.693q-.717.712-1.454,1.4A1.047,1.047,0,0,1,563.84,855.656Z" transform="translate(-553.365 -836.635)" fill="#fff"/>
</svg>
