<svg id="chest" xmlns="http://www.w3.org/2000/svg" width="15.141" height="13.049" viewBox="0 0 15.141 13.049">
  <g id="Group_193" data-name="Group 193" transform="translate(0 4.393)">
    <path id="Path_355" data-name="Path 355" d="M241.9,176.986v-2.093a.365.365,0,0,0-.73,0v2.093a.365.365,0,0,0,.73,0Z" transform="translate(-233.96 -174.528)" fill="#707070"/>
    <g id="Group_192" data-name="Group 192" transform="translate(0 0.981)">
      <path id="Path_356" data-name="Path 356" d="M0,214.4H5.2v.741H0Z" transform="translate(0 -214.4)" fill="#707070"/>
      <path id="Path_357" data-name="Path 357" d="M300.835,214.4h5.2v.741h-5.2Z" transform="translate(-290.89 -214.4)" fill="#707070"/>
    </g>
  </g>
  <g id="Group_196" data-name="Group 196" transform="translate(0 0)">
    <g id="Group_194" data-name="Group 194" transform="translate(0 7.882)">
      <path id="Path_358" data-name="Path 358" d="M15.141,274.5H8.9a1.232,1.232,0,0,1-1.326,1.1,1.232,1.232,0,0,1-1.326-1.1H0v2.95H15.141Z" transform="translate(0 -274.5)" fill="#707070"/>
      <path id="Path_359" data-name="Path 359" d="M0,424.4v1.11a.412.412,0,0,0,.444.369H14.7a.412.412,0,0,0,.444-.369V424.4Z" transform="translate(0 -420.712)" fill="#707070"/>
    </g>
    <g id="Group_195" data-name="Group 195" transform="translate(0)">
      <path id="Path_360" data-name="Path 360" d="M453.379,31.361V28.239a.739.739,0,0,0-1.479,0v3.121Z" transform="translate(-438.238 -27.5)" fill="#707070"/>
      <path id="Path_361" data-name="Path 361" d="M97.113,34.99H88.365a4.972,4.972,0,0,0-1.048.11,1.16,1.16,0,0,1,.089.445v3.121h3.9a1.536,1.536,0,0,1,2.864,0h3.9V35.545a1.16,1.16,0,0,1,.089-.445A4.97,4.97,0,0,0,97.113,34.99Z" transform="translate(-85.169 -34.806)" fill="#707070"/>
      <path id="Path_362" data-name="Path 362" d="M1.479,31.361V28.239a.739.739,0,0,0-1.479,0v3.121Z" transform="translate(0 -27.5)" fill="#707070"/>
    </g>
  </g>
</svg>
