<svg id="fun" xmlns="http://www.w3.org/2000/svg" width="19.626" height="13" viewBox="0 0 19.626 13">
  <path id="Path_346" data-name="Path 346" d="M17.871,11.351c-2.592-4.259-6.5-1.3-6.5-1.3a2.024,2.024,0,0,1-1.038.35H9.29a2.011,2.011,0,0,1-1.037-.348s-3.905-2.964-6.5,1.3A13.141,13.141,0,0,0,.208,20.246c.183,1.135.786,1.893,1.924,1.8s3.6-3.057,3.6-3.057a1.4,1.4,0,0,1,.946-.444h6.271a1.4,1.4,0,0,1,.946.444s2.464,2.963,3.6,3.057,1.741-.663,1.923-1.8A13.137,13.137,0,0,0,17.871,11.351ZM7.456,14.818H6.112v1.3a1.253,1.253,0,0,1-.725.212.876.876,0,0,1-.639-.237v-1.27H3.477a1.021,1.021,0,0,1-.2-.59,1.354,1.354,0,0,1,.175-.774H4.8V12.11a1.462,1.462,0,0,1,.675-.137,1.778,1.778,0,0,1,.69.162l-.005,1.319h1.27a1.264,1.264,0,0,1,.24.629A1.588,1.588,0,0,1,7.456,14.818Zm6.168,1.477a1.064,1.064,0,1,1,1.065-1.064A1.063,1.063,0,0,1,13.624,16.295Zm0-2.928A1.064,1.064,0,1,1,14.688,12.3,1.062,1.062,0,0,1,13.624,13.367Zm2.65,1.572a1.064,1.064,0,1,1,1.065-1.064A1.063,1.063,0,0,1,16.274,14.939Z" transform="translate(0 -9.052)" fill="#707070"/>
</svg>
