<svg id="Social" xmlns="http://www.w3.org/2000/svg" width="67.862" height="71.182" viewBox="0 0 67.862 71.182">
  <ellipse id="Ellipse_66" data-name="Ellipse 66" cx="33.931" cy="8.367" rx="33.931" ry="8.367" transform="translate(0 54.448)" fill="#bde1ff"/>
  <g id="Group_341" data-name="Group 341" transform="translate(5.381 0)">
    <path id="Path_484" data-name="Path 484" d="M275.181,245.53c-9.584,0-17.354,6.38-17.354,14.249a12.546,12.546,0,0,0,3.223,8.273.3.3,0,0,1-.033.43,34.972,34.972,0,0,1-3.685,2.684,1.363,1.363,0,0,0,.665,2.516,14.618,14.618,0,0,0,8.1-1.6.3.3,0,0,1,.287-.014,20.206,20.206,0,0,0,8.8,1.965c9.584,0,17.354-6.38,17.354-14.249S284.765,245.53,275.181,245.53Z" transform="translate(-256.692 -245.53)" fill="#136ad5"/>
    <path id="Path_485" data-name="Path 485" d="M367.869,387.351a1.2,1.2,0,0,1,1.173,1.416,7.973,7.973,0,0,1-15.7-.035,1.189,1.189,0,0,1,1.179-1.382Z" transform="translate(-342.849 -371.973)" fill="#f7f8f8"/>
    <ellipse id="Ellipse_67" data-name="Ellipse 67" cx="1.552" cy="1.552" rx="1.552" ry="1.552" transform="translate(10.478 7.549)" fill="#f7f8f8"/>
    <ellipse id="Ellipse_68" data-name="Ellipse 68" cx="1.552" cy="1.552" rx="1.552" ry="1.552" transform="translate(23.109 7.549)" fill="#f7f8f8"/>
    <path id="Path_486" data-name="Path 486" d="M470.093,520c9.584,0,17.354,6.38,17.354,14.249a12.547,12.547,0,0,1-3.224,8.273.3.3,0,0,0,.033.43,34.972,34.972,0,0,0,3.685,2.684,1.363,1.363,0,0,1-.665,2.516,14.619,14.619,0,0,1-8.1-1.6.3.3,0,0,0-.287-.014,20.2,20.2,0,0,1-8.8,1.965c-9.584,0-17.354-6.38-17.354-14.249S460.51,520,470.093,520Z" transform="translate(-431.483 -490.24)" fill="#ff8a2e"/>
    <path id="Path_487" data-name="Path 487" d="M542.743,661.821a1.2,1.2,0,0,0-1.173,1.416,7.973,7.973,0,0,0,15.7-.035,1.189,1.189,0,0,0-1.179-1.383H542.743Z" transform="translate(-510.664 -616.683)" fill="#f7f8f8"/>
    <ellipse id="Ellipse_69" data-name="Ellipse 69" cx="1.552" cy="1.552" rx="1.552" ry="1.552" transform="translate(43.518 37.308)" fill="#f7f8f8"/>
    <ellipse id="Ellipse_70" data-name="Ellipse 70" cx="1.552" cy="1.552" rx="1.552" ry="1.552" transform="translate(30.887 37.308)" fill="#f7f8f8"/>
  </g>
</svg>
