<svg xmlns="http://www.w3.org/2000/svg" width="32.074" height="32.075" viewBox="0 0 32.074 32.075">
  <g id="resources-card2-icon" transform="translate(-1304.536 -923.805)">
    <path id="Path_5353" data-name="Path 5353" d="M1320.913,952.137l2.742,2.743,1.266-1.266a5,5,0,0,0,1.463-3.457l.086-5.43,4.3-4.295a16.29,16.29,0,0,0,4.366-15.148,16.288,16.288,0,0,0-15.147,4.367l-4.295,4.294-5.431.087a5,5,0,0,0-3.456,1.463l-1.266,1.266,2.8,2.8" transform="translate(0 0)" fill="none" stroke="#136ad5" stroke-linecap="round" stroke-linejoin="round" stroke-width="2"/>
    <path id="Path_5354" data-name="Path 5354" d="M1331.992,933.557a2.866,2.866,0,0,1-.742,4.585,2.774,2.774,0,0,1-2.557,0,2.865,2.865,0,0,1-.5-4.8" transform="translate(-3.701 -1.446)" fill="none" stroke="#136ad5" stroke-linecap="round" stroke-linejoin="round" stroke-width="2"/>
    <g id="Group_1267" data-name="Group 1267" transform="translate(1309.398 941.665)">
      <line id="Line_159" data-name="Line 159" x1="5.042" y2="5.042" fill="none" stroke="#ff8a2e" stroke-linecap="round" stroke-linejoin="round" stroke-width="2"/>
      <line id="Line_160" data-name="Line 160" x1="3.929" y2="3.929" transform="translate(5.534 4.539)" fill="none" stroke="#ff8a2e" stroke-linecap="round" stroke-linejoin="round" stroke-width="2"/>
    </g>
  </g>
</svg>
